<?xml version="1.0" encoding="iso-8859-1"?>
<!-- Generator: Adobe Illustrator 19.1.0, SVG Export Plug-In . SVG Version: 6.00 Build 0)  -->
<svg xmlns="http://www.w3.org/2000/svg" xmlns:xlink="http://www.w3.org/1999/xlink" version="1.1" id="Capa_1" x="0px" y="0px" viewBox="0 0 486.438 486.438" style="enable-background:new 0 0 486.438 486.438;" xml:space="preserve" width="512px" height="512px">
<g>
	<g>
		<path d="M407.025,61.919l-9.3,9.3l-75.9,75.9l-6.7,6.7l-16.6,16.6l-63,63l-2.3,2.3l-3.8-3.8l-54.2-54.2    c-9.2,12.7-14.8,28.1-15.4,44.7l39.5,39.5l16.6,16.6l4.5,4.5c3.5,3.5,8.2,5.3,12.8,5.3c0.8,0,1.5-0.1,2.3-0.2    c3.8-0.5,7.6-2.2,10.5-5.1l4.5-4.5l78.1-78.1l16.6-16.6l6.7-6.7l75.9-75.9l9.2-9.2l24.8,24.6c2.3,2.3,4.6,4.8,7.8,4.8    c1.2,0,2.6-0.3,4.1-1.2c5-2.7,6-7,6.3-11.9c1.2-26.7,2.5-53.5,3.7-80.2c0.4-8.1-3-11.8-10.8-11.8c-0.4,0-0.8,0-1.3,0    c-27.4,1.3-54.8,2.6-82.2,3.9c-4.3,0.2-8.5,0.4-10.8,5.5c-2.4,5.1,0.3,8,3.2,10.9C390.125,45.119,398.425,53.619,407.025,61.919z" fill="#FFFFFF"/>
		<path d="M5.325,231.919c-7.1,7.1-7.1,18.5,0,25.6l4.5,4.5c3.5,3.5,8.2,5.3,12.8,5.3s9.3-1.8,12.8-5.3l34.4-34.4c0-0.7,0-1.3,0-2    c0-27.2,6.3-52.9,17.6-75.8L5.325,231.919z" fill="#FFFFFF"/>
		<path d="M477.725,419.219l-102.8-102.8l-5.6,5.6l-7.7-7.7c18.3-24.8,29.2-55.4,29.2-88.6c0-16.5-2.7-32.4-7.6-47.2l-37.2,37.2    c0.3,3.3,0.5,6.6,0.5,10c0,57.8-46.9,104.6-104.6,104.6c-57.8,0-104.6-46.9-104.6-104.6c0-57.8,46.9-104.6,104.6-104.6    c20.9,0,40.4,6.2,56.7,16.7l31.9-31.9c-24.8-18.3-55.4-29.2-88.6-29.2c-82.3,0-149,66.7-149,149s66.7,149,149,149    c33.3,0,64.1-10.9,88.9-29.4l7.7,7.7l-5.6,5.6l102.8,102.8c11.6,11.6,30.5,11.6,42.1,0    C489.325,449.719,489.325,430.819,477.725,419.219z" fill="#FFFFFF"/>
	</g>
</g>
<g>
</g>
<g>
</g>
<g>
</g>
<g>
</g>
<g>
</g>
<g>
</g>
<g>
</g>
<g>
</g>
<g>
</g>
<g>
</g>
<g>
</g>
<g>
</g>
<g>
</g>
<g>
</g>
<g>
</g>
</svg>
