<?xml version="1.0" encoding="utf-8"?>
<!-- Generator: Adobe Illustrator 19.0.0, SVG Export Plug-In . SVG Version: 6.00 Build 0)  -->
<svg version="1.1" id="Capa_1" xmlns="http://www.w3.org/2000/svg" xmlns:xlink="http://www.w3.org/1999/xlink" x="0px" y="0px"
	 viewBox="228 345.9 1067.9 102.1" style="enable-background:new 228 345.9 1067.9 102.1;" xml:space="preserve">
<style type="text/css">
	.st0{fill:#FFFFFF;}
</style>
<title>um icon</title>
<path class="st0" d="M401.6,407.4v0.9c8.1,0.8,8.7,4.1,8.7,11.5v6.1c0,7.1,1.2,19-11.3,19c-15.9,0-14.1-15-14.1-16.1v-11.9
	c0-6.4,0.1-7.5,7.7-8.6v-0.9h-20v0.9c7,0.9,7,2.7,7.2,8.6v13c0,4.6-1.9,17.6,16.1,17.6c12.9,0,16.1-7.6,16.3-15.1l0.4-12.7
	c0.2-7.7,0.6-10.9,5.9-11.5v-0.9L401.6,407.4z"/>
<path class="st0" d="M428.6,413.6h-8.1v0.7c6.2,1.4,7,3.3,7,8.2v7.3c0,11.1,0.2,15.6-6.4,16.3v0.7h14.6v-0.7
	c-7.1-1.4-6.8-3.9-6.8-16v-9c8.3,8.9,17,17.5,24.8,26.7l0.6-0.1c-0.2-10.7-0.5-22.4,0.2-27.8c0.4-3.2,1-5,4.4-5.5v-0.7h-13.4v0.7
	c5.5,1,6.8,2.4,6.8,7l0.2,17.8L428.6,413.6z"/>
<path class="st0" d="M471.7,421.7c0.1-5,0.2-6.5,6.1-7.3v-0.7h-16.4v0.7c5.9,0.8,5.9,2.2,6.1,7.3v17.2c-0.1,5-0.2,6.5-6.1,7.3v0.7
	h16.4v-0.7c-5.9-0.8-5.9-2.2-6.1-7.3L471.7,421.7z"/>
<path class="st0" d="M501.3,413.6v0.7c7.4,1.1,6.6,2.7,2.4,12.7l-5.8,13.8l-7.8-18.9c-1.3-3.1-3.5-7,3.4-7.7v-0.7h-15.5v0.7
	c4.4,0.5,5.5,3.6,6.9,7.2l11,26.5h0.7l9.3-22.3c3-7.1,4.5-11,9-11.3v-0.7L501.3,413.6z"/>
<path class="st0" d="M515.1,446.9h27.2c1.1-3.1,1.6-6.4,1.7-9.7h-0.8c-1.2,6.2-4.2,8.5-10.4,8.5c-8,0-7.3-4-7.3-6.9v-8h5.1
	c3.7,0,6.4,0,7,4.4h0.7v-10.9h-0.7c-0.5,4.2-3.3,4.5-7,4.5h-5.1v-13.9h4.8c4.9,0,9.5,0,9.8,6.4h0.7l0.6-7.5h-26.2v0.7
	c5.9,0.8,5.9,2.2,6.1,7.3v17.2c-0.1,5-0.2,6.5-6.1,7.3V446.9z"/>
<path class="st0" d="M557.7,414.6c5.1,0,10.2,2.2,10.2,8c0,5.4-5.5,7.6-10.2,7.6V414.6z M553.4,438.9c-0.2,5-0.2,6.5-6.1,7.3v0.7
	h17.1v-0.7c-6.7-0.9-6.8-1.9-6.8-7.3V431c3.4,0.6,5.2-0.6,7.1,3.5c1.8,3.6,4.1,6.8,6.8,9.8c2.8,2.9,6.6,2.8,11.8,3l0.2-0.7
	c-8.1-1.7-12.8-10.1-16.5-16.7l-0.2-0.3c3.5-1.6,6.1-3.9,6.1-8c0-2.4-1-8.4-13.3-8l-11.9,0.4v0.7c5.5,0.5,5.7,1.6,5.7,9.1
	L553.4,438.9z"/>
<path class="st0" d="M601.6,414.9c-2.2-1.2-4.6-1.9-7.1-1.9c-5.2,0-10.9,3.6-10.9,9.3c0,9.8,15,9,15,17.7c0,3.8-2.8,6-6.5,6
	c-5.4,0-8.6-4.6-9.9-9.3h-0.9l1.4,8.3c2.6,1.6,5.6,2.5,8.6,2.5c5.6,0,11.9-3.3,11.9-9.6c0-9.9-15.4-9.6-15.4-18c0-3,2.4-5.4,5.4-5.4
	c0.1,0,0.2,0,0.3,0c4.8,0,6.1,3.8,6.9,7.8h0.8L601.6,414.9z"/>
<path class="st0" d="M617.5,421.7c0.2-5,0.2-6.5,6.1-7.3v-0.7h-16.4v0.7c5.9,0.8,5.9,2.2,6.1,7.3v17.2c-0.1,5-0.2,6.5-6.1,7.3v0.7
	h16.4v-0.7c-5.9-0.8-5.9-2.2-6.1-7.3V421.7z"/>
<path class="st0" d="M626.9,414.6c5.6,0.8,5.6,2.2,5.8,7.3v17c-0.2,5-0.2,6.5-6.1,7.3v0.7l14.6,0.1c16.8,0.1,21.3-9.6,21.3-16.6
	c0-5.1-2.2-17.5-23.8-16.8l-11.8,0.4L626.9,414.6z M637,414.5c10.6,0,19.9,4.8,19.9,16.6c0,11.1-7.6,14.7-13.2,14.7
	c-6.1,0-6.7-3.1-6.7-6.4V414.5z"/>
<path class="st0" d="M685.9,433c1.3,3.4,3.1,8,3.1,10.1s-2,2.7-3.8,3.1v0.7h14.4v-0.7c-3.9-0.7-4.7-2.1-6.1-5.7l-10.8-28.6
	c-1,1.2-2.2,2.1-3.6,2.6c0.5,0.9-0.1,2.1-0.5,3.4l-2.9,8l-5.5,14.4c-1.5,3.8-2,4.8-6.3,6v0.7h13.4v-0.7c-2.2-0.3-5.6-0.3-5.6-3.3
	c0-2.4,2.1-7.4,3-9.9L685.9,433z M685.3,430.7h-9.7l4.6-12.7L685.3,430.7z"/>
<path class="st0" d="M700.3,414.6c5.6,0.8,5.6,2.2,5.8,7.3v17c-0.2,5-0.2,6.5-6.1,7.3v0.7l14.6,0.1c16.8,0.1,21.3-9.6,21.3-16.6
	c0-5.1-2.2-17.5-23.8-16.8l-11.8,0.4L700.3,414.6z M710.3,414.5c10.6,0,19.8,4.8,19.8,16.6c0,11.1-7.6,14.7-13.2,14.7
	c-6.1,0-6.7-3.1-6.7-6.4L710.3,414.5z"/>
<path class="st0" d="M756.6,414.6c5.6,0.8,5.6,2.2,5.8,7.3v17c-0.2,5-0.2,6.5-6.1,7.3v0.7l14.6,0.1c16.8,0.1,21.3-9.6,21.3-16.6
	c0-5.1-2.2-17.5-23.8-16.8l-11.8,0.4L756.6,414.6z M766.7,414.5c10.6,0,19.8,4.8,19.8,16.6c0,11.1-7.6,14.7-13.2,14.7
	c-6.1,0-6.7-3.1-6.7-6.4L766.7,414.5z"/>
<path class="st0" d="M796.4,446.9h27.2c1.1-3.1,1.6-6.4,1.7-9.7h-0.7c-1.2,6.2-4.2,8.5-10.4,8.5c-8,0-7.3-4-7.3-6.9v-8h5.1
	c3.7,0,6.4,0,7,4.4h0.7v-10.9h-0.7c-0.5,4.2-3.3,4.5-7,4.5h-5.1v-13.9h4.7c4.9,0,9.5,0,9.8,6.4h0.7l0.6-7.5h-26.3v0.7
	c5.9,0.8,5.9,2.2,6.1,7.3v17.2c-0.2,5-0.2,6.5-6.1,7.3V446.9z"/>
<path class="st0" d="M860.6,413.8c-0.4-0.9-2-4.4-0.7-5.8l0-0.6h-12.5v0.9c3.4,0.3,6.7,1.6,6.4,5.5l-0.8,7.9l-2.2,16.3
	c-0.8,4.7-1.3,7.2-6.5,8.1v0.9h16.2v-0.9c-7-1.2-7.1-3.8-7-6c0.4-9,0.9-15.5,1.8-24.3h0.1l13.8,31.2h0.6l14.8-32.6h0.1l1.6,25.4
	c0.3,5.1-2.6,5.6-7,6.3v0.9h19.1V446c-6.2-1-6.2-2.3-6.8-10.4l-1.4-21.1c-0.2-4.1,2-5.5,5.8-6.2v-0.9h-12.8l-0.1,0.9
	c1.3,0.9,0.5,3.8-1,7l-10.5,23.1L860.6,413.8z"/>
<path class="st0" d="M919.7,413.1c-10.2,0-17.8,6.8-17.8,17.2c0,10.6,7.6,17.3,17.9,17.3s17.9-6.7,17.9-17.2
	C937.6,421.6,932.2,413.1,919.7,413.1z M919.3,414.2c7.5,0,12.5,8.2,12.7,16.9c0,7-3.6,15.2-11.6,15.2c-8.8,0-12.8-9.7-12.8-17.3
	C907.5,422.4,910.9,414.2,919.3,414.2L919.3,414.2z"/>
<path class="st0" d="M949.1,413.6h-8.1v0.7c6.2,1.4,7,3.3,7,8.2v7.3c0,11.1,0.2,15.6-6.4,16.3v0.7h14.6v-0.7
	c-7.1-1.4-6.8-3.9-6.8-16v-9c8.3,8.9,17,17.5,24.8,26.7l0.6-0.1c-0.2-10.7-0.5-22.4,0.2-27.8c0.4-3.2,1-5,4.4-5.5v-0.7h-13.4v0.7
	c5.5,1,6.8,2.4,6.8,7l0.2,17.8L949.1,413.6z"/>
<path class="st0" d="M1011.2,412.6c-1.2,1.1-1.4,1.1-3,1.1h-22.4c-1.6,0-1.8,0-3-1.1l-0.5-0.4h-0.4l-0.7,9.2l0.7,0.1
	c1.7-6.1,4.4-6.3,10-6.3h2.9v22.6c0,6.1-0.3,7.7-6.8,8.5v0.7h18v-0.7c-6.5-0.8-6.8-2.4-6.8-8.5v-22.6h2.9c5.6,0,8.3,0.2,10,6.3
	l0.7-0.1l-0.7-9.1h-0.4L1011.2,412.6z"/>
<path class="st0" d="M1015.2,446.9h27.2c1.1-3.1,1.6-6.4,1.7-9.7h-0.7c-1.2,6.2-4.3,8.5-10.4,8.5c-8,0-7.3-4-7.3-6.9v-8h5.1
	c3.7,0,6.4,0,7,4.4h0.7v-10.9h-0.7c-0.5,4.2-3.3,4.5-7,4.5h-5.1v-13.9h4.7c4.9,0,9.5,0,9.8,6.4h0.7l0.6-7.5h-26.3v0.7
	c5.9,0.8,5.9,2.2,6.1,7.3v17.2c-0.2,5-0.2,6.5-6.1,7.3V446.9z"/>
<path class="st0" d="M1060.3,419c-0.3-0.8-1.7-3.7-0.6-4.8l-0.1-0.5h-10.6v0.7c2.9,0.2,5.7,1.4,5.4,4.6l-0.6,6.6l-1.8,13.7
	c-0.7,4-1.1,6.1-5.5,6.8v0.7h13.6v-0.7c-5.9-1-6-3.2-5.9-5.1c0.3-7.6,0.7-13,1.5-20.5h0.1l11.6,26.3h0.5l12.5-27.4h0.1l1.3,21.4
	c0.2,4.3-2.2,4.7-5.9,5.3v0.7h16.1v-0.7c-5.2-0.9-5.2-2-5.8-8.8l-1.1-17.8c-0.2-3.4,1.7-4.6,4.8-5.2v-0.7h-10.8l-0.1,0.8
	c1.1,0.7,0.4,3.2-0.8,5.9l-8.8,19.5L1060.3,419z"/>
<path class="st0" d="M1113.4,413.1c-10.2,0-17.8,6.8-17.8,17.2c0,10.6,7.6,17.3,17.9,17.3c10.3,0,17.9-6.7,17.9-17.2
	C1131.3,421.6,1125.9,413.1,1113.4,413.1z M1113,414.2c7.5,0,12.5,8.2,12.7,16.9c0,7-3.6,15.2-11.6,15.2c-8.8,0-12.8-9.7-12.8-17.3
	C1101.2,422.4,1104.6,414.2,1113,414.2L1113,414.2z"/>
<path class="st0" d="M1145.8,414.6c5.1,0,10.2,2.2,10.2,8c0,5.4-5.5,7.6-10.2,7.6V414.6z M1141.5,438.9c-0.1,5-0.2,6.5-6.1,7.3v0.7
	h17.2v-0.7c-6.7-0.9-6.8-1.9-6.8-7.3V431c3.4,0.6,5.2-0.6,7.1,3.5c1.8,3.6,4.1,6.8,6.8,9.8c2.8,2.9,6.7,2.8,11.8,3l0.2-0.7
	c-8.1-1.7-12.8-10.1-16.5-16.7l-0.2-0.3c3.5-1.6,6.1-3.9,6.1-8c0-2.4-1-8.4-13.3-8l-11.9,0.4v0.7c5.5,0.5,5.7,1.6,5.7,9.1
	L1141.5,438.9z"/>
<path class="st0" d="M1169.7,446.9h27.2c1.1-3.1,1.6-6.4,1.7-9.7h-0.7c-1.2,6.2-4.3,8.5-10.4,8.5c-8,0-7.3-4-7.3-6.9v-8h5.1
	c3.7,0,6.3,0,7,4.4h0.7v-10.9h-0.7c-0.5,4.2-3.3,4.5-7,4.5h-5.1v-13.9h4.8c4.9,0,9.5,0,9.8,6.4h0.7l0.6-7.5h-26.3v0.7
	c5.9,0.8,5.9,2.2,6.1,7.3v17.2c-0.2,5-0.2,6.5-6.1,7.3L1169.7,446.9z"/>
<path class="st0" d="M1202,446.9h27.3l2.8-9.1l-0.6-0.3c-3.8,6.3-5,8.6-12.4,8l-6-0.4c-0.6-2.4-0.9-4.9-0.7-7.4v-16
	c0-5,0.2-6.5,6.1-7.3v-0.7H1202v0.7c5.9,0.8,5.9,2.2,6.1,7.3v17.2c-0.2,5-0.2,6.5-6.1,7.3L1202,446.9z"/>
<path class="st0" d="M1252.3,413.1c-10.2,0-17.8,6.8-17.8,17.2c0,10.6,7.6,17.3,17.9,17.3s17.9-6.7,17.9-17.2
	C1270.2,421.6,1264.8,413.1,1252.3,413.1z M1251.9,414.2c7.5,0,12.5,8.2,12.7,16.9c0,7-3.6,15.2-11.6,15.2
	c-8.8,0-12.8-9.7-12.8-17.3C1240.1,422.4,1243.5,414.2,1251.9,414.2L1251.9,414.2z"/>
<path class="st0" d="M1294.3,414.9c-2.2-1.2-4.6-1.9-7.1-1.9c-5.2,0-10.9,3.6-10.9,9.3c0,9.8,15,9,15,17.7c0,3.8-2.8,6-6.4,6
	c-5.4,0-8.7-4.6-9.9-9.3h-0.9l1.4,8.3c2.6,1.6,5.6,2.5,8.6,2.5c5.6,0,11.9-3.3,11.9-9.6c0-9.9-15.4-9.6-15.4-18c0-3,2.5-5.4,5.5-5.4
	c0.1,0,0.2,0,0.3,0c4.8,0,6.1,3.8,6.9,7.8h0.8L1294.3,414.9z"/>
<path class="st0" d="M295,424.1c-2.4-4.8-3.5-11.3,1.5-18.4c4-5.6,8.2-10.4,5-21.1c6.4,7.4,8.2,16.2,5.8,22.8
	C304.4,415.4,297.4,416.8,295,424.1z"/>
<path class="st0" d="M278.2,426.2c-13.9-2-28.5-19.9-13.9-39.3c13.8-18.4,22.8-27.2,13.3-41.1c14.4,12.1,8.1,27.2-3.5,45.1
	C268.1,400.2,265.1,415.3,278.2,426.2z"/>
<path class="st0" d="M237.7,434c0,0,5.6-0.9,20.7-4.9c7.8-2.1,16.7-0.6,20.4,3.1c2.1,2.3,3.7,5.1,4.7,8.1c0.3,1,0.6,2.1,0.8,3.2
	c0.5-1.4,1.1-2.8,1.8-4.2c0.3-0.4,1.9-0.5,3.2-3.8c0.9-2.5,0-5.9-4.4-9c-9.6-6.7-10.8-23-2.4-35.2c10.4-15.2,11.8-23.3,7.1-30.4
	c16.1,14.6,6.8,30,1.5,37.8c-4.6,6.8-6.2,12.5-4.7,19c0.3,2,0.9,4,1.8,5.8c1.2,1.8,3.1,6.8,6.1,5.7c4.8-1.8,9.5-0.6,17.5,1.1
	c13.6,2.9,18.7,3.8,18.7,3.8l10.3,14c0,0-24.9-4.8-33.7-6.1c-10-1.4-19.4,0.1-22.7,6c-3.3-5.7-12.5-7.4-22.1-6
	c-8.7,1.2-34.1,6.1-34.1,6.1L237.7,434z"/>
</svg>
